# xmcd
#
# Track frame offsets:
#	150
#	14207
#	31345
#	48183
#	66314
#	87282
#	100974
#	116933
#	131989
#	149734
#	160362
#	178236
#	191945
#	206424
#	215765
#
# Disc length: 3061 seconds
#
# Revision: 1
# Processed by: cddbd v1.5.1PL0 Copyright (c) Steve Scherf et al.
# Submitted via: audiograbber 1.83.01
#
DISCID=f80bf30f
DTITLE=Vladi Olmos and David Garcia - A Pelo
DYEAR=2002
DGENRE=Blues
TTITLE0=Drinkin' wine Spo-Dee-O-Dee
TTITLE1=Shake it and break it
TTITLE2=Ni siquiera soy negro
TTITLE3=Hellhound on my trail
TTITLE4=Easy
TTITLE5=You can't get that stuff no more
TTITLE6=That's all right
TTITLE7=Sarah Jane
TTITLE8=Come on in my kitchen
TTITLE9=A pelo
TTITLE10=High sheriff blues
TTITLE11=Hot tamales
TTITLE12=Trouble in mind
TTITLE13=Guitar shuffle
TTITLE14=Good morning little schoolgirl
EXTD=
EXTT0=
EXTT1=
EXTT2=
EXTT3=
EXTT4=
EXTT5=
EXTT6=
EXTT7=
EXTT8=
EXTT9=
EXTT10=
EXTT11=
EXTT12=
EXTT13=
EXTT14=
PLAYORDER=
